<svg width="20" height="21" viewBox="0 0 20 21" fill="none" xmlns="http://www.w3.org/2000/svg">
<g id="fluent:settings-20-regular">
<path id="Vector" d="M1.91101 7.88313C2.28021 6.74229 2.88685 5.69259 3.691 4.80313C3.7575 4.72964 3.84434 4.67757 3.94048 4.65354C4.03663 4.6295 4.13775 4.63458 4.231 4.66813L6.14901 5.35413C6.28555 5.40288 6.43106 5.42137 6.57546 5.4083C6.71985 5.39522 6.85968 5.35091 6.98524 5.27842C7.11081 5.20594 7.21911 5.10701 7.30265 4.98851C7.38618 4.87 7.44294 4.73475 7.46901 4.59213L7.83501 2.58613C7.85268 2.48848 7.89902 2.39829 7.96811 2.32706C8.03721 2.25583 8.12594 2.20677 8.223 2.18613C9.39454 1.93666 10.6055 1.93666 11.777 2.18613C11.8741 2.20677 11.9628 2.25583 12.0319 2.32706C12.101 2.39829 12.1473 2.48848 12.165 2.58613L12.531 4.59213C12.5571 4.73475 12.6138 4.87 12.6974 4.98851C12.7809 5.10701 12.8892 5.20594 13.0148 5.27842C13.1403 5.35091 13.2802 5.39522 13.4246 5.4083C13.569 5.42137 13.7145 5.40288 13.851 5.35413L15.77 4.66813C15.8634 4.6347 15.9645 4.62978 16.0607 4.65399C16.1568 4.67821 16.2436 4.73047 16.31 4.80413C17.114 5.6933 17.7207 6.74265 18.09 7.88313C18.1204 7.97743 18.122 8.07863 18.0948 8.17388C18.0676 8.26913 18.0126 8.35414 17.937 8.41813L16.382 9.73813C16.2715 9.832 16.1828 9.94878 16.122 10.0804C16.0611 10.2119 16.0296 10.3552 16.0296 10.5001C16.0296 10.6451 16.0611 10.7883 16.122 10.9199C16.1828 11.0515 16.2715 11.1683 16.382 11.2621L17.937 12.5821C18.0125 12.6462 18.0672 12.7313 18.0943 12.8265C18.1213 12.9218 18.1195 13.0229 18.089 13.1171C17.7198 14.258 17.1132 15.3077 16.309 16.1971C16.2425 16.2706 16.1557 16.3227 16.0595 16.3467C15.9634 16.3708 15.8623 16.3657 15.769 16.3321L13.851 15.6461C13.7145 15.5974 13.569 15.5789 13.4246 15.592C13.2802 15.605 13.1403 15.6493 13.0148 15.7218C12.8892 15.7943 12.7809 15.8932 12.6974 16.0117C12.6138 16.1302 12.5571 16.2655 12.531 16.4081L12.165 18.4151C12.1471 18.5126 12.1007 18.6026 12.0317 18.6736C11.9626 18.7446 11.8739 18.7936 11.777 18.8141C10.6055 19.0637 9.39453 19.0637 8.223 18.8141C8.12594 18.7935 8.03721 18.7444 7.96811 18.6732C7.89902 18.602 7.85268 18.5118 7.83501 18.4141L7.46901 16.4081C7.44294 16.2655 7.38618 16.1302 7.30265 16.0117C7.21911 15.8932 7.11081 15.7943 6.98524 15.7218C6.85968 15.6493 6.71985 15.605 6.57546 15.592C6.43106 15.5789 6.28555 15.5974 6.14901 15.6461L4.231 16.3321C4.13765 16.3656 4.03647 16.3705 3.94032 16.3463C3.84417 16.322 3.75738 16.2698 3.691 16.1961C2.88695 15.307 2.28031 14.2576 1.91101 13.1171C1.88052 13.0229 1.87869 12.9218 1.90575 12.8265C1.93281 12.7313 1.98754 12.6462 2.063 12.5821L3.61801 11.2621C3.72847 11.1683 3.8172 11.0515 3.87806 10.9199C3.93891 10.7883 3.97043 10.6451 3.97043 10.5001C3.97043 10.3552 3.93891 10.2119 3.87806 10.0804C3.8172 9.94878 3.72847 9.832 3.61801 9.73813L2.063 8.41813C1.98754 8.35402 1.93281 8.26896 1.90575 8.17371C1.87869 8.07847 1.88052 7.97733 1.91101 7.88313ZM2.971 7.87713L4.265 8.97513C4.48628 9.16288 4.66404 9.39653 4.78596 9.65988C4.90788 9.92322 4.97103 10.2099 4.97103 10.5001C4.97103 10.7903 4.90788 11.077 4.78596 11.3404C4.66404 11.6037 4.48628 11.8374 4.265 12.0251L2.972 13.1231C3.264 13.9051 3.68501 14.6331 4.21601 15.2751L5.812 14.7051C6.08516 14.6076 6.37626 14.5707 6.66511 14.5969C6.95396 14.6231 7.23366 14.7118 7.4848 14.8569C7.73595 15.002 7.95254 15.1999 8.11955 15.437C8.28657 15.6742 8.4 15.9448 8.452 16.2301L8.75701 17.8981C9.57999 18.0354 10.42 18.0354 11.243 17.8981L11.547 16.2281C11.5988 15.9426 11.7121 15.6718 11.8792 15.4345C12.0462 15.1972 12.263 14.9991 12.5143 14.8541C12.7657 14.709 13.0456 14.6205 13.3346 14.5946C13.6237 14.5687 13.9149 14.6061 14.188 14.7041L15.784 15.2751C16.316 14.6321 16.7368 13.9048 17.029 13.1231L15.735 12.0251C15.5134 11.8376 15.3354 11.604 15.2133 11.3406C15.0911 11.0772 15.0279 10.7904 15.0279 10.5001C15.0279 10.2098 15.0911 9.92301 15.2133 9.65965C15.3354 9.39628 15.5134 9.16269 15.735 8.97513L17.029 7.87713C16.7368 7.09545 16.316 6.3681 15.784 5.72513L14.188 6.29513C13.9149 6.39264 13.6239 6.42961 13.3351 6.40346C13.0463 6.37732 12.7667 6.28869 12.5155 6.14372C12.2644 5.99875 12.0478 5.8009 11.8807 5.56389C11.7137 5.32688 11.6001 5.05638 11.548 4.77113L11.243 3.10213C10.42 2.96485 9.57999 2.96485 8.75701 3.10213L8.45301 4.77113C8.401 5.05647 8.28756 5.32708 8.12055 5.56421C7.95354 5.80133 7.73695 5.9993 7.4858 6.14437C7.23466 6.28945 6.95496 6.37817 6.66611 6.40437C6.37726 6.43057 6.08616 6.39364 5.81301 6.29613L4.21601 5.72513C3.68439 6.36818 3.26293 7.09552 2.971 7.87713ZM7.50201 10.5001C7.50201 9.83709 7.7654 9.2012 8.23424 8.73236C8.70308 8.26352 9.33896 8.00013 10.002 8.00013C10.665 8.00013 11.3009 8.26352 11.7698 8.73236C12.2386 9.2012 12.502 9.83709 12.502 10.5001C12.502 11.1632 12.2386 11.7991 11.7698 12.2679C11.3009 12.7367 10.665 13.0001 10.002 13.0001C9.33896 13.0001 8.70308 12.7367 8.23424 12.2679C7.7654 11.7991 7.50201 11.1632 7.50201 10.5001ZM8.50201 10.5001C8.50201 10.898 8.66004 11.2795 8.94134 11.5608C9.22265 11.8421 9.60418 12.0001 10.002 12.0001C10.3998 12.0001 10.7814 11.8421 11.0627 11.5608C11.344 11.2795 11.502 10.898 11.502 10.5001C11.502 10.1023 11.344 9.72077 11.0627 9.43947C10.7814 9.15816 10.3998 9.00013 10.002 9.00013C9.60418 9.00013 9.22265 9.15816 8.94134 9.43947C8.66004 9.72077 8.50201 10.1023 8.50201 10.5001Z" fill="#184E77"/>
</g>
</svg>
